<svg xmlns="http://www.w3.org/2000/svg" xmlns:xlink="http://www.w3.org/1999/xlink" width="325.769" height="334.304" viewBox="0 0 325.769 334.304">
  <defs>
    <clipPath id="clip-path">
      <rect id="Dark_BG" data-name="Dark BG" width="58" height="58" fill="#81c784"/>
    </clipPath>
    <clipPath id="clip-path-2">
      <path id="__TEMP__SVG__" d="M58.035,30.952A11.608,11.608,0,0,1,46.428,42.559H13.541a13.038,13.038,0,0,1-9.566-3.975,13.494,13.494,0,0,1-1.83-16.866A13.333,13.333,0,0,1,7.8,16.775q-.06-.846-.06-1.3A14.906,14.906,0,0,1,12.273,4.535,14.918,14.918,0,0,1,23.214,0a14.985,14.985,0,0,1,8.66,2.66,15.443,15.443,0,0,1,5.666,6.951,7.32,7.32,0,0,1,5.017-1.873A7.459,7.459,0,0,1,48.029,10,7.447,7.447,0,0,1,50.3,15.476a7.489,7.489,0,0,1-1.24,4.17,11.355,11.355,0,0,1,6.439,4.066,11.231,11.231,0,0,1,2.539,7.24Z" transform="translate(0 7.738)" fill="#81c784"/>
    </clipPath>
  </defs>
  <g id="Logo" transform="translate(-97.23 -99)">
    <g id="Ellipse_1" data-name="Ellipse 1" transform="translate(109 109)" fill="#3949ab" stroke="#201f47" stroke-width="3">
      <circle cx="141" cy="141" r="141" stroke="none"/>
      <circle cx="141" cy="141" r="139.5" fill="none"/>
    </g>
    <path id="Subtraction_2" data-name="Subtraction 2" d="M222.068,284.283H41.13L179.788,167.577a175.054,175.054,0,0,1,17.729,24.551,173.566,173.566,0,0,1,24.573,89.348c0,.934-.007,1.878-.022,2.807h0Z" transform="matrix(-0.875, 0.485, -0.485, -0.875, 429.298, 472.198)" fill="#201f47"/>
    <path id="Subtraction_2-2" data-name="Subtraction 2" d="M222.068,284.283H41.13L179.788,167.577a175.054,175.054,0,0,1,17.729,24.551,173.566,173.566,0,0,1,24.573,89.348c0,.934-.007,1.878-.022,2.807h0Z" transform="translate(200.909 -31.283)" fill="#201f47"/>
    <path id="Subtraction_1" data-name="Subtraction 1" d="M217.091,277.284h-170L177.321,167.72a170.03,170.03,0,0,1,39.77,109.563Z" transform="matrix(-0.875, 0.485, -0.485, -0.875, 425.609, 469.669)" fill="#4527a0"/>
    <path id="Subtraction_1-2" data-name="Subtraction 1" d="M170,109.564H0L130.232,0a169.93,169.93,0,0,1,29.193,50.247A170.253,170.253,0,0,1,170,109.563Z" transform="translate(249.998 140.438)" fill="#4527a0"/>
    <g id="Ellipse_4" data-name="Ellipse 4" transform="matrix(0.407, 0.914, -0.914, 0.407, 279.902, 172.103)" fill="#ffb300" stroke="#201f47" stroke-width="3">
      <circle cx="59" cy="59" r="59" stroke="none"/>
      <circle cx="59" cy="59" r="57.5" fill="none"/>
    </g>
    <g id="Subtraction_3" data-name="Subtraction 3" transform="matrix(0.407, 0.914, -0.914, 0.407, 357.682, 334.508)" fill="#283593">
      <path d="M -70.10256195068359 93.92298889160156 L -70.11374664306641 93.91685485839844 L -68.71856689453125 91.37353515625 L -70.10256195068359 93.92298889160156 Z M -69.98682403564453 90.55714416503906 L -119.4995956420898 63.11183929443359 L -119.4995956420898 6.519384384155273 C -112.2663497924805 6.702699661254883 -105.2492904663086 8.213886260986328 -98.61867523193359 11.01840305328369 C -91.77185821533203 13.9143533706665 -85.62247467041016 18.06047821044922 -80.34132385253906 23.34162712097168 C -75.06017303466797 28.62276458740234 -70.91403198242188 34.77215194702148 -68.01808166503906 41.61897659301758 C -65.02015686035156 48.70679092407227 -63.50009918212891 56.23681640625 -63.50009918212891 63.99990463256836 C -63.50009918212891 68.96080017089844 -64.13228607177734 73.88533020019531 -65.37911224365234 78.63668823242188 C -66.46227264404297 82.76441192626953 -68.00999450683594 86.76734924316406 -69.98682403564453 90.55714416503906 Z" stroke="none"/>
      <path d="M -70.62383270263672 88.48902130126953 C -69.02700042724609 85.20995330810547 -67.75466156005859 81.77965545654297 -66.82998657226563 78.25595855712891 C -65.61576080322266 73.62879943847656 -65.00009155273438 68.83237457275391 -65.00009155273438 63.99990463256836 C -65.00009155273438 56.43870162963867 -66.48029327392578 49.10527420043945 -69.39958953857422 42.20330429077148 C -72.21991729736328 35.53527450561523 -76.25810241699219 29.54614639282227 -81.40196228027344 24.40228843688965 C -86.54586029052734 19.25840377807617 -92.53500366210938 15.22021770477295 -99.2030029296875 12.39990329742432 C -105.1883087158203 9.868322372436523 -111.4982070922852 8.41895866394043 -117.9995880126953 8.078628540039063 L -117.9995880126953 62.22826766967773 L -70.62383270263672 88.48902130126953 M -69.38603210449219 92.60520172119141 L -69.38604736328125 92.60518646240234 L -69.38603210449219 92.60520172119141 Z M -69.38604736328125 92.60518646240234 L -69.38652801513672 92.60492706298828 L -120.9995880126953 63.99540328979492 L -120.9995880126953 5.000402927398682 C -113.0335922241211 5.000402927398682 -105.3072891235352 6.560688972473145 -98.03434753417969 9.63688850402832 C -91.00875091552734 12.60846042633057 -84.69908905029297 16.86254501342773 -79.28064727783203 22.28096008300781 C -73.86224365234375 27.69935989379883 -69.60816192626953 34.00900268554688 -66.63657379150391 41.03464508056641 C -63.56003189086914 48.30838775634766 -62.00009155273438 56.03501892089844 -62.00009155273438 63.99990463256836 C -62.00009155273438 69.08924865722656 -62.64881896972656 74.14186096191406 -63.9282341003418 79.01741790771484 C -65.169677734375 83.74826049804688 -67.00577545166016 88.31955718994141 -69.38555908203125 92.60433197021484 L -69.38604736328125 92.60518646240234 Z M -69.38652801513672 92.60492706298828 L -69.38691711425781 92.60472106933594 L -69.38652801513672 92.60492706298828 L -69.38603210449219 92.60520172119141 Z" stroke="none" fill="#201f47"/>
    </g>
    <circle id="Ellipse_6" data-name="Ellipse 6" cx="50" cy="50" r="50" transform="translate(200 200)" fill="#201f47"/>
    <path id="Polygon_2" data-name="Polygon 2" d="M15.678,2.838a3,3,0,0,1,4.644,0L31.991,17.1A3,3,0,0,1,29.669,22H6.331a3,3,0,0,1-2.322-4.9Z" transform="translate(268 122) rotate(180)" fill="#201f47"/>
    <path id="Polygon_1" data-name="Polygon 1" d="M13.464,1.844a2,2,0,0,1,3.073,0L27.266,14.72A2,2,0,0,1,25.73,18H4.27a2,2,0,0,1-1.536-3.28Z" transform="translate(265 117) rotate(180)" fill="#81c784"/>
    <g id="Mask_Group_2" data-name="Mask Group 2" transform="translate(221 221)" clip-path="url(#clip-path)">
      <g id="Mask_Group_3" data-name="Mask Group 3" clip-path="url(#clip-path-2)">
        <g id="__TEMP__SVG__2" data-name="__TEMP__SVG__" transform="translate(4.57 3.107)">
          <path id="Path_2" data-name="Path 2" d="M45.71,33.127a22.022,22.022,0,0,1-28.5-28.5,22.024,22.024,0,1,0,28.5,28.5Z" fill="#81c784" fill-rule="evenodd"/>
        </g>
      </g>
    </g>
  </g>
</svg>
